<svg xmlns="http://www.w3.org/2000/svg" width="500" height="500" fill="none"><g clip-path="url(#a)"><rect width="500" height="500" fill="#336CD0" rx="25"/><path fill="#3D3D3D" d="M0 40c0-14.001 0-21.002 2.725-26.35A25 25 0 0 1 13.65 2.725C18.998 0 26 0 40 0h420c14.001 0 21.002 0 26.35 2.725a25 25 0 0 1 10.925 10.925C500 18.998 500 26 500 40z"/><circle cx="81" cy="20" r="8" fill="#75C64E"/><circle cx="53" cy="20" r="8" fill="#EEBA40"/><circle cx="25" cy="20" r="8" fill="#E05F58"/><g filter="url(#b)"><path fill="#fff" d="M58.92 259.42a481 481 0 0 0 6.068 3.116 67 67 0 0 1 3.116 1.64l2.296 1.148q1.147.492 3.28 1.64 2.295 1.148 6.396 3.28 4.264 1.968 11.808 5.576 1.64.984 1.64 3.28 0 1.476-.328 4.428t-1.312 6.068q-.82 2.952-2.296 5.248-1.476 2.132-3.936 2.132-2.132 0-6.068-1.64t-8.856-4.264a589 589 0 0 1-9.84-5.904 503 503 0 0 1-9.676-6.396 1369 1369 0 0 1-7.872-5.576q-3.28-2.624-4.428-4.1-.984-1.312-1.148-2.132a12 12 0 0 1-.164-1.968l.656-10.004q.165-2.297.82-3.444.82-1.147 2.46-2.46 1.804-1.312 6.068-3.772 4.264-2.624 9.676-5.576a273 273 0 0 1 11.48-6.232q6.068-3.28 11.48-5.74 5.576-2.624 9.84-4.264t6.068-1.64q1.968 0 1.968 2.132 0 6.067-.492 9.84t-1.64 6.232q-1.148 2.296-2.788 3.772-1.64 1.312-3.936 2.624-2.46 1.312-5.248 2.624-2.625 1.312-6.232 2.788-3.445 1.476-8.2 3.28a1085 1085 0 0 0-10.66 4.264m102.367 32.636q3.607 0 5.74-2.624 2.296-2.624 3.772-7.052t2.296-10.168a310 310 0 0 0 1.804-12.464q.327-2.952.656-6.888.327-4.1.656-10.332.492-6.396.984-15.744.655-9.512 1.476-23.288.163-2.296.492-3.116.327-.82 2.132-.82h9.02q5.575 0 8.692.984 3.279.984 4.92 2.46 1.64 1.476 1.968 3.28.328 1.64.328 3.28t-.164 7.544-.492 13.776a478 478 0 0 1-.984 16.236q-.492 8.528-1.148 15.416-.984 9.348-3.116 19.188-1.968 9.677-6.56 17.712-4.593 8.036-12.3 13.12-7.545 5.084-19.68 5.084-6.724 0-12.136-1.64-5.249-1.64-9.02-4.428-3.608-2.952-5.576-6.724-1.968-3.936-1.968-8.2 0-3.936 1.476-7.052 1.64-3.28 4.264-5.412a19.5 19.5 0 0 1 5.904-3.28 22.2 22.2 0 0 1 7.052-1.148q.984 0 1.312 1.968.492 1.804 1.148 4.264a16 16 0 0 0 2.296 4.264q1.476 1.804 4.756 1.804M261.247 316q-9.84 0-13.448-3.772-3.608-3.936-3.608-11.972 0-2.788.328-9.02t1.476-19.352q-1.312-2.46-2.296-4.264a120 120 0 0 1-1.968-3.772 100 100 0 0 1-2.132-4.592 423 423 0 0 0-2.952-6.56 1784 1784 0 0 1-6.396-14.104 1260 1260 0 0 0-6.724-15.416q-3.28-7.543-5.576-13.284-2.132-5.74-2.132-7.216 0-3.444 10.988-3.444 6.888 0 10.988 1.476 4.265 1.312 6.888 3.772a14.4 14.4 0 0 1 3.936 5.576 79 79 0 0 1 2.46 6.724q1.476 4.756 2.132 7.052.655 2.296.984 3.772l.984 2.952q.492 1.312 1.312 4.264a481 481 0 0 1 2.624 8.2q1.64 5.248 4.592 14.432 4.756-10.004 7.544-16.236 2.952-6.232 5.084-11.48a188 188 0 0 0 3.936-10.988 5435 5435 0 0 0 4.92-14.432q.984-3.116 1.968-3.936 1.148-.984 3.444-.984.82 0 4.428.328 3.772.164 7.708 1.148 4.1.984 7.38 3.116t3.28 5.74q0 2.788-1.968 7.872-1.805 5.084-4.92 11.48-2.952 6.232-7.052 13.284a286 286 0 0 1-8.2 13.776q-4.264 6.724-8.528 12.464-4.1 5.576-7.544 9.184-.163 3.936-.492 9.348a179 179 0 0 1-.656 10.824 846 846 0 0 1-.656 9.676 312 312 0 0 1-.492 5.904q-.164 1.313-.656 1.968-.492.492-1.968.492zm95.92 1.64q-2.296 0-4.264-.164a8.24 8.24 0 0 1-3.608-1.148q-1.476-.82-2.46-2.46-.82-1.64-.82-4.592 0-2.132.492-5.248.656-3.28 1.968-8.364 1.311-5.249 3.608-12.792 2.295-7.708 5.74-18.696a24345 24345 0 0 1 8.036-25.584q4.755-14.76 10.988-34.276 1.148-3.444 2.624-4.1 1.64-.656 3.608-.656 4.1 0 6.56.656 2.623.492 3.772 1.64 1.311.984 1.64 2.624.492 1.476.492 3.444 0 2.131-.492 4.92-.328 2.624-1.476 7.216-1.149 4.428-3.28 11.48-1.968 7.052-5.412 17.876-3.28 10.66-8.2 25.912a13710 13710 0 0 1-11.316 36.08q-1.476 4.428-3.116 5.248-1.64.984-5.084.984m85.624-58.22a478 478 0 0 0-6.068-3.116l-3.28-1.64q-1.147-.656-2.296-1.148l-3.28-1.64q-2.131-1.148-6.396-3.116a1524 1524 0 0 0-11.644-5.74q-1.64-.984-1.64-3.28 0-1.476.328-4.428a37.6 37.6 0 0 1 1.148-5.904q.984-3.116 2.46-5.248 1.476-2.296 3.936-2.296 2.133 0 6.068 1.64 3.937 1.64 8.692 4.428a140 140 0 0 1 10.004 5.904 180 180 0 0 1 9.512 6.232q4.593 3.116 7.872 5.74 3.444 2.623 4.592 3.936.984 1.312 1.148 2.296.165.82.164 1.804l-.656 10.004q-.163 2.296-.984 3.444-.655 1.147-2.296 2.46-1.803 1.313-6.068 3.936-4.263 2.46-9.676 5.576a3445 3445 0 0 1-11.48 6.232 375 375 0 0 1-11.644 5.74q-5.412 2.46-9.676 4.1-4.263 1.64-6.068 1.64-1.968 0-1.968-2.132 0-6.068.492-9.84t1.64-6.068q1.149-2.46 2.788-3.772 1.641-1.476 3.936-2.788 2.46-1.312 5.084-2.624a196 196 0 0 1 6.232-2.788 649 649 0 0 1 8.2-3.28q4.593-1.804 10.824-4.264"/></g></g><defs><clipPath id="a"><path fill="#fff" d="M0 0h500v500H0z"/></clipPath><filter id="b" width="435.511" height="127.408" x="37.6" y="199.232" color-interpolation-filters="sRGB" filterUnits="userSpaceOnUse"><feFlood flood-opacity="0" result="BackgroundImageFix"/><feColorMatrix in="SourceAlpha" result="hardAlpha" values="0 0 0 0 0 0 0 0 0 0 0 0 0 0 0 0 0 0 127 0"/><feOffset dx="5" dy="5"/><feGaussianBlur stdDeviation="2"/><feComposite in2="hardAlpha" operator="out"/><feColorMatrix values="0 0 0 0 0 0 0 0 0 0 0 0 0 0 0 0 0 0 0.25 0"/><feBlend in2="BackgroundImageFix" result="effect1_dropShadow_1_2"/><feBlend in="SourceGraphic" in2="effect1_dropShadow_1_2" result="shape"/></filter></defs></svg>